<mxfile host="app.diagrams.net" modified="2024-02-15T19:22:14.627Z" agent="Mozilla/5.0 (Windows NT 10.0; Win64; x64) AppleWebKit/537.36 (KHTML, like Gecko) Chrome/121.0.0.0 Safari/537.36" etag="YzmIIfHyLcNDvF2Ya7z2" version="23.1.4" type="device" pages="2">
  <diagram name="Página-1" id="HYkjk5vnmAH3ptbamou4">
    <mxGraphModel dx="1863" dy="1726" grid="1" gridSize="10" guides="1" tooltips="1" connect="1" arrows="1" fold="1" page="1" pageScale="1" pageWidth="827" pageHeight="1169" math="0" shadow="0">
      <root>
        <mxCell id="0" />
        <mxCell id="1" parent="0" />
        <mxCell id="5ztLOOMDP1upSRiWswOd-3" value="" style="edgeStyle=orthogonalEdgeStyle;rounded=0;orthogonalLoop=1;jettySize=auto;html=1;" parent="1" source="5ztLOOMDP1upSRiWswOd-1" target="5ztLOOMDP1upSRiWswOd-2" edge="1">
          <mxGeometry relative="1" as="geometry" />
        </mxCell>
        <mxCell id="5ztLOOMDP1upSRiWswOd-1" value="inicio" style="ellipse;whiteSpace=wrap;html=1;fillColor=#60a917;strokeColor=#2D7600;fontColor=#ffffff;" parent="1" vertex="1">
          <mxGeometry x="-80" y="-1030" width="120" height="70" as="geometry" />
        </mxCell>
        <mxCell id="5ztLOOMDP1upSRiWswOd-5" value="" style="edgeStyle=orthogonalEdgeStyle;rounded=0;orthogonalLoop=1;jettySize=auto;html=1;" parent="1" source="5ztLOOMDP1upSRiWswOd-2" target="5ztLOOMDP1upSRiWswOd-4" edge="1">
          <mxGeometry relative="1" as="geometry" />
        </mxCell>
        <mxCell id="5ztLOOMDP1upSRiWswOd-2" value="Recebe o 1°&lt;br&gt;numero" style="shape=parallelogram;perimeter=parallelogramPerimeter;whiteSpace=wrap;html=1;fixedSize=1;fillColor=#ffe6cc;strokeColor=#d79b00;" parent="1" vertex="1">
          <mxGeometry x="-80" y="-930" width="120" height="60" as="geometry" />
        </mxCell>
        <mxCell id="5ztLOOMDP1upSRiWswOd-7" value="" style="edgeStyle=orthogonalEdgeStyle;rounded=0;orthogonalLoop=1;jettySize=auto;html=1;" parent="1" source="5ztLOOMDP1upSRiWswOd-4" target="5ztLOOMDP1upSRiWswOd-6" edge="1">
          <mxGeometry relative="1" as="geometry" />
        </mxCell>
        <mxCell id="5ztLOOMDP1upSRiWswOd-4" value="Recebe o 2°&lt;br&gt;numero" style="shape=parallelogram;perimeter=parallelogramPerimeter;whiteSpace=wrap;html=1;fixedSize=1;fillColor=#ffe6cc;strokeColor=#d79b00;" parent="1" vertex="1">
          <mxGeometry x="-80" y="-810" width="120" height="60" as="geometry" />
        </mxCell>
        <mxCell id="5ztLOOMDP1upSRiWswOd-6" value="realizar a soma&amp;nbsp;&lt;br&gt;dos numeros" style="shape=parallelogram;perimeter=parallelogramPerimeter;whiteSpace=wrap;html=1;fixedSize=1;fillColor=#e6d0de;strokeColor=#996185;gradientColor=#d5739d;" parent="1" vertex="1">
          <mxGeometry x="-80" y="-670" width="120" height="60" as="geometry" />
        </mxCell>
        <mxCell id="5ztLOOMDP1upSRiWswOd-9" value="" style="edgeStyle=orthogonalEdgeStyle;rounded=0;orthogonalLoop=1;jettySize=auto;html=1;" parent="1" source="5ztLOOMDP1upSRiWswOd-8" target="5ztLOOMDP1upSRiWswOd-6" edge="1">
          <mxGeometry relative="1" as="geometry" />
        </mxCell>
        <mxCell id="5ztLOOMDP1upSRiWswOd-8" value="exibir o resultado&lt;br&gt;da soma" style="strokeWidth=2;html=1;shape=mxgraph.flowchart.display;whiteSpace=wrap;fillColor=#f8cecc;strokeColor=#b85450;gradientColor=#ea6b66;" parent="1" vertex="1">
          <mxGeometry x="-70" y="-560" width="100" height="60" as="geometry" />
        </mxCell>
        <mxCell id="5ztLOOMDP1upSRiWswOd-12" value="" style="edgeStyle=orthogonalEdgeStyle;rounded=0;orthogonalLoop=1;jettySize=auto;html=1;" parent="1" source="5ztLOOMDP1upSRiWswOd-11" target="5ztLOOMDP1upSRiWswOd-8" edge="1">
          <mxGeometry relative="1" as="geometry" />
        </mxCell>
        <mxCell id="5ztLOOMDP1upSRiWswOd-11" value="fim" style="ellipse;whiteSpace=wrap;html=1;fillColor=#d80073;strokeColor=#A50040;fontColor=#ffffff;" parent="1" vertex="1">
          <mxGeometry x="-80" y="-470" width="120" height="80" as="geometry" />
        </mxCell>
        <mxCell id="5ztLOOMDP1upSRiWswOd-15" value="" style="edgeStyle=orthogonalEdgeStyle;rounded=0;orthogonalLoop=1;jettySize=auto;html=1;" parent="1" source="5ztLOOMDP1upSRiWswOd-13" target="5ztLOOMDP1upSRiWswOd-14" edge="1">
          <mxGeometry relative="1" as="geometry" />
        </mxCell>
        <mxCell id="5ztLOOMDP1upSRiWswOd-13" value="inicio" style="ellipse;whiteSpace=wrap;html=1;fillColor=#60a917;strokeColor=#2D7600;fontColor=#ffffff;" parent="1" vertex="1">
          <mxGeometry x="280" y="-1050" width="120" height="70" as="geometry" />
        </mxCell>
        <mxCell id="5ztLOOMDP1upSRiWswOd-17" value="" style="edgeStyle=orthogonalEdgeStyle;rounded=0;orthogonalLoop=1;jettySize=auto;html=1;" parent="1" source="5ztLOOMDP1upSRiWswOd-14" target="5ztLOOMDP1upSRiWswOd-16" edge="1">
          <mxGeometry relative="1" as="geometry" />
        </mxCell>
        <mxCell id="5ztLOOMDP1upSRiWswOd-14" value="obter 1° Nota" style="shape=parallelogram;perimeter=parallelogramPerimeter;whiteSpace=wrap;html=1;fixedSize=1;fillColor=#FFBB03;strokeColor=#2D7600;fontColor=#ffffff;" parent="1" vertex="1">
          <mxGeometry x="280" y="-895" width="120" height="60" as="geometry" />
        </mxCell>
        <mxCell id="5ztLOOMDP1upSRiWswOd-19" value="" style="edgeStyle=orthogonalEdgeStyle;rounded=0;orthogonalLoop=1;jettySize=auto;html=1;" parent="1" source="5ztLOOMDP1upSRiWswOd-16" target="5ztLOOMDP1upSRiWswOd-18" edge="1">
          <mxGeometry relative="1" as="geometry" />
        </mxCell>
        <mxCell id="5ztLOOMDP1upSRiWswOd-16" value="obter 2° nota" style="shape=parallelogram;perimeter=parallelogramPerimeter;whiteSpace=wrap;html=1;fixedSize=1;fillColor=#FFCE31;strokeColor=#2D7600;fontColor=#ffffff;" parent="1" vertex="1">
          <mxGeometry x="280" y="-755" width="120" height="60" as="geometry" />
        </mxCell>
        <mxCell id="5ztLOOMDP1upSRiWswOd-21" value="" style="edgeStyle=orthogonalEdgeStyle;rounded=0;orthogonalLoop=1;jettySize=auto;html=1;" parent="1" source="5ztLOOMDP1upSRiWswOd-18" target="5ztLOOMDP1upSRiWswOd-20" edge="1">
          <mxGeometry relative="1" as="geometry" />
        </mxCell>
        <mxCell id="5ztLOOMDP1upSRiWswOd-18" value="realizar o cálculo da&lt;br&gt;media" style="whiteSpace=wrap;html=1;fillColor=#76608a;strokeColor=#432D57;fontColor=#ffffff;" parent="1" vertex="1">
          <mxGeometry x="280" y="-610" width="120" height="60" as="geometry" />
        </mxCell>
        <mxCell id="5ztLOOMDP1upSRiWswOd-22" value="" style="edgeStyle=orthogonalEdgeStyle;rounded=0;orthogonalLoop=1;jettySize=auto;html=1;" parent="1" source="5ztLOOMDP1upSRiWswOd-20" target="5ztLOOMDP1upSRiWswOd-18" edge="1">
          <mxGeometry relative="1" as="geometry" />
        </mxCell>
        <mxCell id="5ztLOOMDP1upSRiWswOd-24" value="" style="edgeStyle=orthogonalEdgeStyle;rounded=0;orthogonalLoop=1;jettySize=auto;html=1;" parent="1" source="5ztLOOMDP1upSRiWswOd-20" target="5ztLOOMDP1upSRiWswOd-23" edge="1">
          <mxGeometry relative="1" as="geometry" />
        </mxCell>
        <mxCell id="5ztLOOMDP1upSRiWswOd-20" value="media acima&lt;br&gt;de 7?&amp;nbsp;" style="rhombus;whiteSpace=wrap;html=1;fillColor=#FFFF0C;strokeColor=#2D7600;fontColor=#ffffff;" parent="1" vertex="1">
          <mxGeometry x="280" y="-485" width="120" height="80" as="geometry" />
        </mxCell>
        <mxCell id="5ztLOOMDP1upSRiWswOd-23" value="exibir ´´aprovado``" style="strokeWidth=2;html=1;shape=mxgraph.flowchart.display;whiteSpace=wrap;" parent="1" vertex="1">
          <mxGeometry x="450" y="-380" width="100" height="60" as="geometry" />
        </mxCell>
        <mxCell id="5ztLOOMDP1upSRiWswOd-30" style="edgeStyle=orthogonalEdgeStyle;rounded=0;orthogonalLoop=1;jettySize=auto;html=1;entryX=0;entryY=0.5;entryDx=0;entryDy=0;" parent="1" source="5ztLOOMDP1upSRiWswOd-25" target="5ztLOOMDP1upSRiWswOd-20" edge="1">
          <mxGeometry relative="1" as="geometry">
            <Array as="points">
              <mxPoint x="170" y="-440" />
              <mxPoint x="280" y="-440" />
            </Array>
          </mxGeometry>
        </mxCell>
        <mxCell id="5ztLOOMDP1upSRiWswOd-25" value="exibir ´´reprovado``" style="strokeWidth=2;html=1;shape=mxgraph.flowchart.display;whiteSpace=wrap;" parent="1" vertex="1">
          <mxGeometry x="120" y="-390" width="100" height="60" as="geometry" />
        </mxCell>
        <mxCell id="5ztLOOMDP1upSRiWswOd-27" value="não" style="text;html=1;align=center;verticalAlign=middle;resizable=0;points=[];autosize=1;strokeColor=none;fillColor=none;" parent="1" vertex="1">
          <mxGeometry x="220" y="-502" width="40" height="30" as="geometry" />
        </mxCell>
        <mxCell id="5ztLOOMDP1upSRiWswOd-28" value="sim" style="text;html=1;align=center;verticalAlign=middle;resizable=0;points=[];autosize=1;strokeColor=none;fillColor=none;" parent="1" vertex="1">
          <mxGeometry x="394" y="-515" width="40" height="30" as="geometry" />
        </mxCell>
        <mxCell id="5ztLOOMDP1upSRiWswOd-32" style="edgeStyle=orthogonalEdgeStyle;rounded=0;orthogonalLoop=1;jettySize=auto;html=1;entryX=0.5;entryY=1;entryDx=0;entryDy=0;entryPerimeter=0;" parent="1" source="5ztLOOMDP1upSRiWswOd-29" target="5ztLOOMDP1upSRiWswOd-23" edge="1">
          <mxGeometry relative="1" as="geometry">
            <mxPoint x="520" y="-290" as="targetPoint" />
          </mxGeometry>
        </mxCell>
        <mxCell id="5ztLOOMDP1upSRiWswOd-29" value="fim" style="ellipse;whiteSpace=wrap;html=1;fillColor=#d80073;strokeColor=#A50040;fontColor=#ffffff;" parent="1" vertex="1">
          <mxGeometry x="280" y="-280" width="120" height="80" as="geometry" />
        </mxCell>
        <mxCell id="5ztLOOMDP1upSRiWswOd-31" style="edgeStyle=orthogonalEdgeStyle;rounded=0;orthogonalLoop=1;jettySize=auto;html=1;entryX=0.5;entryY=1;entryDx=0;entryDy=0;entryPerimeter=0;" parent="1" source="5ztLOOMDP1upSRiWswOd-29" target="5ztLOOMDP1upSRiWswOd-25" edge="1">
          <mxGeometry relative="1" as="geometry" />
        </mxCell>
      </root>
    </mxGraphModel>
  </diagram>
  <diagram id="JR0i3906s8qrcBB8EuHI" name="Página-2">
    <mxGraphModel dx="1219" dy="655" grid="1" gridSize="10" guides="1" tooltips="1" connect="1" arrows="1" fold="1" page="1" pageScale="1" pageWidth="827" pageHeight="1169" math="0" shadow="0">
      <root>
        <mxCell id="0" />
        <mxCell id="1" parent="0" />
        <mxCell id="Pm2hruT4zxR5TysBZXD4-2" value="" style="edgeStyle=orthogonalEdgeStyle;rounded=0;orthogonalLoop=1;jettySize=auto;html=1;" parent="1" source="W5KTujg6fDTp7PdwDEkw-1" target="Pm2hruT4zxR5TysBZXD4-1" edge="1">
          <mxGeometry relative="1" as="geometry" />
        </mxCell>
        <mxCell id="W5KTujg6fDTp7PdwDEkw-1" value="inicio" style="ellipse;whiteSpace=wrap;html=1;fillColor=#60a917;fontColor=#ffffff;strokeColor=#2D7600;" parent="1" vertex="1">
          <mxGeometry x="120.06" y="1610" width="120" height="80" as="geometry" />
        </mxCell>
        <mxCell id="Pm2hruT4zxR5TysBZXD4-4" value="" style="edgeStyle=orthogonalEdgeStyle;rounded=0;orthogonalLoop=1;jettySize=auto;html=1;" parent="1" source="Pm2hruT4zxR5TysBZXD4-1" edge="1">
          <mxGeometry relative="1" as="geometry">
            <mxPoint x="180.06" y="1920" as="targetPoint" />
          </mxGeometry>
        </mxCell>
        <mxCell id="Pm2hruT4zxR5TysBZXD4-1" value="receber o&lt;br&gt;algoritimo" style="shape=parallelogram;perimeter=parallelogramPerimeter;whiteSpace=wrap;html=1;fixedSize=1;fillColor=#FFCE31;strokeColor=#2D7600;fontColor=#ffffff;" parent="1" vertex="1">
          <mxGeometry x="120.06" y="1780" width="120" height="60" as="geometry" />
        </mxCell>
        <mxCell id="1tRA_NsneQNRHBHpu_Zi-2" value="" style="edgeStyle=orthogonalEdgeStyle;rounded=0;orthogonalLoop=1;jettySize=auto;html=1;" edge="1" parent="1" source="Pm2hruT4zxR5TysBZXD4-5" target="1tRA_NsneQNRHBHpu_Zi-1">
          <mxGeometry relative="1" as="geometry" />
        </mxCell>
        <mxCell id="Pm2hruT4zxR5TysBZXD4-5" value="soma dos algoritimos" style="whiteSpace=wrap;html=1;fillColor=#9800FF;strokeColor=#2D7600;fontColor=#ffffff;" parent="1" vertex="1">
          <mxGeometry x="170.06" y="1930" width="119.94" height="60" as="geometry" />
        </mxCell>
        <mxCell id="1tRA_NsneQNRHBHpu_Zi-4" style="edgeStyle=orthogonalEdgeStyle;rounded=0;orthogonalLoop=1;jettySize=auto;html=1;" edge="1" parent="1" source="1tRA_NsneQNRHBHpu_Zi-1">
          <mxGeometry relative="1" as="geometry">
            <mxPoint x="30.060000000000002" y="2140" as="targetPoint" />
          </mxGeometry>
        </mxCell>
        <mxCell id="mtMNLyoLJIpqdIh2ogYZ-1" style="edgeStyle=orthogonalEdgeStyle;rounded=0;orthogonalLoop=1;jettySize=auto;html=1;exitX=1;exitY=0.5;exitDx=0;exitDy=0;" edge="1" parent="1" source="1tRA_NsneQNRHBHpu_Zi-1">
          <mxGeometry relative="1" as="geometry">
            <mxPoint x="220.06" y="2090" as="targetPoint" />
          </mxGeometry>
        </mxCell>
        <mxCell id="1tRA_NsneQNRHBHpu_Zi-1" value="=&amp;gt; que 16?" style="rhombus;whiteSpace=wrap;html=1;fillColor=#FFFF0C;strokeColor=#2D7600;fontColor=#ffffff;" vertex="1" parent="1">
          <mxGeometry x="140.06" y="2050" width="80" height="80" as="geometry" />
        </mxCell>
        <mxCell id="1tRA_NsneQNRHBHpu_Zi-3" style="edgeStyle=orthogonalEdgeStyle;rounded=0;orthogonalLoop=1;jettySize=auto;html=1;exitX=1;exitY=0.5;exitDx=0;exitDy=0;" edge="1" parent="1" source="1tRA_NsneQNRHBHpu_Zi-1">
          <mxGeometry relative="1" as="geometry">
            <mxPoint x="340.06" y="2140" as="targetPoint" />
            <Array as="points">
              <mxPoint x="340.06" y="2090" />
              <mxPoint x="340.06" y="2140" />
            </Array>
          </mxGeometry>
        </mxCell>
        <mxCell id="7EkYuNHyeKQ_FEmJAZ_X-11" style="edgeStyle=orthogonalEdgeStyle;rounded=0;orthogonalLoop=1;jettySize=auto;html=1;" edge="1" parent="1">
          <mxGeometry relative="1" as="geometry">
            <mxPoint x="120.06" y="2620" as="targetPoint" />
            <mxPoint x="20.001176470588064" y="2210" as="sourcePoint" />
            <Array as="points">
              <mxPoint x="20.060000000000002" y="2320" />
              <mxPoint x="21.060000000000002" y="2320" />
            </Array>
          </mxGeometry>
        </mxCell>
        <mxCell id="7EkYuNHyeKQ_FEmJAZ_X-1" value="exibir ´´não pode&lt;br&gt;votar``" style="strokeWidth=2;html=1;shape=mxgraph.flowchart.display;whiteSpace=wrap;fillColor=#FFCE31;" vertex="1" parent="1">
          <mxGeometry x="50" y="1860" width="100" height="60" as="geometry" />
        </mxCell>
        <mxCell id="mtMNLyoLJIpqdIh2ogYZ-5" value="" style="edgeStyle=orthogonalEdgeStyle;rounded=0;orthogonalLoop=1;jettySize=auto;html=1;" edge="1" parent="1" source="7EkYuNHyeKQ_FEmJAZ_X-8" target="mtMNLyoLJIpqdIh2ogYZ-4">
          <mxGeometry relative="1" as="geometry" />
        </mxCell>
        <mxCell id="7EkYuNHyeKQ_FEmJAZ_X-8" value="exibir ´´pode votar``" style="strokeWidth=2;html=1;shape=mxgraph.flowchart.display;whiteSpace=wrap;fillColor=#FFCE31;" vertex="1" parent="1">
          <mxGeometry x="290.06" y="2150" width="100" height="60" as="geometry" />
        </mxCell>
        <mxCell id="7EkYuNHyeKQ_FEmJAZ_X-9" value="FIM" style="ellipse;whiteSpace=wrap;html=1;fillColor=#FF3333;" vertex="1" parent="1">
          <mxGeometry x="130.06" y="2580" width="120" height="80" as="geometry" />
        </mxCell>
        <mxCell id="mtMNLyoLJIpqdIh2ogYZ-2" value="não" style="text;html=1;align=center;verticalAlign=middle;resizable=0;points=[];autosize=1;strokeColor=none;fillColor=none;" vertex="1" parent="1">
          <mxGeometry x="60.06" y="2038" width="40" height="30" as="geometry" />
        </mxCell>
        <mxCell id="mtMNLyoLJIpqdIh2ogYZ-3" value="sim" style="text;html=1;align=center;verticalAlign=middle;resizable=0;points=[];autosize=1;strokeColor=none;fillColor=none;" vertex="1" parent="1">
          <mxGeometry x="250.06" y="2048" width="40" height="30" as="geometry" />
        </mxCell>
        <mxCell id="mtMNLyoLJIpqdIh2ogYZ-6" style="edgeStyle=orthogonalEdgeStyle;rounded=0;orthogonalLoop=1;jettySize=auto;html=1;" edge="1" parent="1" source="mtMNLyoLJIpqdIh2ogYZ-4">
          <mxGeometry relative="1" as="geometry">
            <mxPoint x="240.06" y="2360" as="targetPoint" />
          </mxGeometry>
        </mxCell>
        <mxCell id="mtMNLyoLJIpqdIh2ogYZ-8" style="edgeStyle=orthogonalEdgeStyle;rounded=0;orthogonalLoop=1;jettySize=auto;html=1;" edge="1" parent="1" source="mtMNLyoLJIpqdIh2ogYZ-4" target="mtMNLyoLJIpqdIh2ogYZ-9">
          <mxGeometry relative="1" as="geometry">
            <mxPoint x="470.06" y="2350" as="targetPoint" />
            <Array as="points">
              <mxPoint x="420.06" y="2280" />
            </Array>
          </mxGeometry>
        </mxCell>
        <mxCell id="mtMNLyoLJIpqdIh2ogYZ-4" value="&amp;gt;18" style="rhombus;whiteSpace=wrap;html=1;fillColor=#FFFF33;strokeWidth=2;" vertex="1" parent="1">
          <mxGeometry x="300.06" y="2240" width="80" height="80" as="geometry" />
        </mxCell>
        <mxCell id="mtMNLyoLJIpqdIh2ogYZ-10" style="edgeStyle=orthogonalEdgeStyle;rounded=0;orthogonalLoop=1;jettySize=auto;html=1;entryX=0.5;entryY=0;entryDx=0;entryDy=0;" edge="1" parent="1" source="mtMNLyoLJIpqdIh2ogYZ-7" target="7EkYuNHyeKQ_FEmJAZ_X-9">
          <mxGeometry relative="1" as="geometry" />
        </mxCell>
        <mxCell id="mtMNLyoLJIpqdIh2ogYZ-7" value="exibir ``opcional``" style="strokeWidth=2;html=1;shape=mxgraph.flowchart.display;whiteSpace=wrap;fillColor=#FFCE31;" vertex="1" parent="1">
          <mxGeometry x="190.06" y="2340" width="100" height="60" as="geometry" />
        </mxCell>
        <mxCell id="mtMNLyoLJIpqdIh2ogYZ-11" style="edgeStyle=orthogonalEdgeStyle;rounded=0;orthogonalLoop=1;jettySize=auto;html=1;entryX=1;entryY=0.5;entryDx=0;entryDy=0;" edge="1" parent="1" source="mtMNLyoLJIpqdIh2ogYZ-9" target="7EkYuNHyeKQ_FEmJAZ_X-9">
          <mxGeometry relative="1" as="geometry" />
        </mxCell>
        <mxCell id="mtMNLyoLJIpqdIh2ogYZ-9" value="exibir ´´obrigatorio``" style="strokeWidth=2;html=1;shape=mxgraph.flowchart.display;whiteSpace=wrap;fillColor=#FFCE31;" vertex="1" parent="1">
          <mxGeometry x="370.06" y="2350" width="100" height="50" as="geometry" />
        </mxCell>
        <mxCell id="mtMNLyoLJIpqdIh2ogYZ-17" style="edgeStyle=orthogonalEdgeStyle;rounded=0;orthogonalLoop=1;jettySize=auto;html=1;entryX=0.5;entryY=0;entryDx=0;entryDy=0;" edge="1" parent="1" source="mtMNLyoLJIpqdIh2ogYZ-13" target="mtMNLyoLJIpqdIh2ogYZ-14">
          <mxGeometry relative="1" as="geometry" />
        </mxCell>
        <mxCell id="mtMNLyoLJIpqdIh2ogYZ-13" value="inicio" style="ellipse;whiteSpace=wrap;html=1;fillColor=#60a917;fontColor=#ffffff;strokeColor=#2D7600;" vertex="1" parent="1">
          <mxGeometry x="142.9" y="100" width="120" height="80" as="geometry" />
        </mxCell>
        <mxCell id="mtMNLyoLJIpqdIh2ogYZ-16" style="edgeStyle=orthogonalEdgeStyle;rounded=0;orthogonalLoop=1;jettySize=auto;html=1;" edge="1" parent="1" source="mtMNLyoLJIpqdIh2ogYZ-14" target="mtMNLyoLJIpqdIh2ogYZ-15">
          <mxGeometry relative="1" as="geometry" />
        </mxCell>
        <mxCell id="mtMNLyoLJIpqdIh2ogYZ-14" value="coletar o numero de usuario" style="shape=parallelogram;perimeter=parallelogramPerimeter;whiteSpace=wrap;html=1;fixedSize=1;fillColor=#FFCE31;strokeColor=#2D7600;fontColor=#ffffff;" vertex="1" parent="1">
          <mxGeometry x="117.9" y="230" width="170" height="100" as="geometry" />
        </mxCell>
        <mxCell id="mtMNLyoLJIpqdIh2ogYZ-19" style="edgeStyle=orthogonalEdgeStyle;rounded=0;orthogonalLoop=1;jettySize=auto;html=1;entryX=0.421;entryY=0;entryDx=0;entryDy=0;entryPerimeter=0;" edge="1" parent="1" source="mtMNLyoLJIpqdIh2ogYZ-15">
          <mxGeometry relative="1" as="geometry">
            <mxPoint x="84.99999999999991" y="450" as="targetPoint" />
            <Array as="points">
              <mxPoint x="102.9" y="420" />
              <mxPoint x="102.9" y="450" />
              <mxPoint x="107.9" y="450" />
              <mxPoint x="107.9" y="470" />
            </Array>
          </mxGeometry>
        </mxCell>
        <mxCell id="mtMNLyoLJIpqdIh2ogYZ-20" style="edgeStyle=orthogonalEdgeStyle;rounded=0;orthogonalLoop=1;jettySize=auto;html=1;entryX=0.5;entryY=0;entryDx=0;entryDy=0;entryPerimeter=0;" edge="1" parent="1" source="mtMNLyoLJIpqdIh2ogYZ-15">
          <mxGeometry relative="1" as="geometry">
            <mxPoint x="295.39999999999975" y="450" as="targetPoint" />
            <Array as="points">
              <mxPoint x="292.9" y="420" />
              <mxPoint x="292.9" y="450" />
            </Array>
          </mxGeometry>
        </mxCell>
        <mxCell id="mtMNLyoLJIpqdIh2ogYZ-15" value="e maior&amp;nbsp;&lt;br&gt;que 0?" style="rhombus;whiteSpace=wrap;html=1;fillColor=#FFFF0C;strokeColor=#2D7600;fontColor=#ffffff;" vertex="1" parent="1">
          <mxGeometry x="157.9" y="380" width="90" height="80" as="geometry" />
        </mxCell>
        <mxCell id="mtMNLyoLJIpqdIh2ogYZ-23" style="edgeStyle=orthogonalEdgeStyle;rounded=0;orthogonalLoop=1;jettySize=auto;html=1;entryX=0;entryY=0.5;entryDx=0;entryDy=0;" edge="1" parent="1" target="mtMNLyoLJIpqdIh2ogYZ-22">
          <mxGeometry relative="1" as="geometry">
            <mxPoint x="92.90000000000023" y="500" as="sourcePoint" />
          </mxGeometry>
        </mxCell>
        <mxCell id="mtMNLyoLJIpqdIh2ogYZ-18" value="exibir ´´positivo``" style="strokeWidth=2;html=1;shape=mxgraph.flowchart.display;whiteSpace=wrap;fillColor=#FFCE31;" vertex="1" parent="1">
          <mxGeometry x="50" y="460" width="100" height="50" as="geometry" />
        </mxCell>
        <mxCell id="mtMNLyoLJIpqdIh2ogYZ-24" style="edgeStyle=orthogonalEdgeStyle;rounded=0;orthogonalLoop=1;jettySize=auto;html=1;entryX=1;entryY=0.5;entryDx=0;entryDy=0;" edge="1" parent="1" target="mtMNLyoLJIpqdIh2ogYZ-22">
          <mxGeometry relative="1" as="geometry">
            <mxPoint x="295.3705882352941" y="500" as="sourcePoint" />
          </mxGeometry>
        </mxCell>
        <mxCell id="mtMNLyoLJIpqdIh2ogYZ-21" value="exibir ´´negativo``" style="strokeWidth=2;html=1;shape=mxgraph.flowchart.display;whiteSpace=wrap;fillColor=#FFCE31;" vertex="1" parent="1">
          <mxGeometry x="250" y="460" width="105" height="50" as="geometry" />
        </mxCell>
        <mxCell id="mtMNLyoLJIpqdIh2ogYZ-22" value="FIM" style="ellipse;whiteSpace=wrap;html=1;fillColor=#FF3333;" vertex="1" parent="1">
          <mxGeometry x="142.9" y="550" width="120" height="80" as="geometry" />
        </mxCell>
        <mxCell id="mtMNLyoLJIpqdIh2ogYZ-25" value="inicio" style="ellipse;whiteSpace=wrap;html=1;fillColor=#60a917;fontColor=#ffffff;strokeColor=#2D7600;" vertex="1" parent="1">
          <mxGeometry x="145.06" y="760" width="120" height="80" as="geometry" />
        </mxCell>
        <mxCell id="mtMNLyoLJIpqdIh2ogYZ-48" style="edgeStyle=orthogonalEdgeStyle;rounded=0;orthogonalLoop=1;jettySize=auto;html=1;" edge="1" parent="1" source="mtMNLyoLJIpqdIh2ogYZ-34" target="mtMNLyoLJIpqdIh2ogYZ-35">
          <mxGeometry relative="1" as="geometry" />
        </mxCell>
        <mxCell id="mtMNLyoLJIpqdIh2ogYZ-34" value="solicitar o 1°&lt;br&gt;numero" style="shape=parallelogram;perimeter=parallelogramPerimeter;whiteSpace=wrap;html=1;fixedSize=1;fillColor=#FFCE31;strokeColor=#2D7600;fontColor=#ffffff;" vertex="1" parent="1">
          <mxGeometry x="125.06" y="890" width="140" height="70" as="geometry" />
        </mxCell>
        <mxCell id="mtMNLyoLJIpqdIh2ogYZ-49" style="edgeStyle=orthogonalEdgeStyle;rounded=0;orthogonalLoop=1;jettySize=auto;html=1;" edge="1" parent="1" source="mtMNLyoLJIpqdIh2ogYZ-35" target="mtMNLyoLJIpqdIh2ogYZ-38">
          <mxGeometry relative="1" as="geometry" />
        </mxCell>
        <mxCell id="mtMNLyoLJIpqdIh2ogYZ-35" value="solicitar o 2°&lt;br&gt;numero" style="shape=parallelogram;perimeter=parallelogramPerimeter;whiteSpace=wrap;html=1;fixedSize=1;fillColor=#FFCE31;strokeColor=#2D7600;fontColor=#ffffff;" vertex="1" parent="1">
          <mxGeometry x="115.06" y="1050" width="140" height="70" as="geometry" />
        </mxCell>
        <mxCell id="mtMNLyoLJIpqdIh2ogYZ-36" style="edgeStyle=orthogonalEdgeStyle;rounded=0;orthogonalLoop=1;jettySize=auto;html=1;entryX=0.421;entryY=0;entryDx=0;entryDy=0;entryPerimeter=0;" edge="1" source="mtMNLyoLJIpqdIh2ogYZ-38" target="mtMNLyoLJIpqdIh2ogYZ-40" parent="1">
          <mxGeometry relative="1" as="geometry">
            <Array as="points">
              <mxPoint x="85.06" y="1210" />
              <mxPoint x="85.06" y="1240" />
              <mxPoint x="90.06" y="1240" />
              <mxPoint x="90.06" y="1260" />
            </Array>
          </mxGeometry>
        </mxCell>
        <mxCell id="mtMNLyoLJIpqdIh2ogYZ-37" style="edgeStyle=orthogonalEdgeStyle;rounded=0;orthogonalLoop=1;jettySize=auto;html=1;entryX=0.5;entryY=0;entryDx=0;entryDy=0;entryPerimeter=0;" edge="1" source="mtMNLyoLJIpqdIh2ogYZ-38" target="mtMNLyoLJIpqdIh2ogYZ-42" parent="1">
          <mxGeometry relative="1" as="geometry">
            <mxPoint x="275.06" y="1240" as="targetPoint" />
            <Array as="points">
              <mxPoint x="345.06" y="1210" />
              <mxPoint x="345.06" y="1240" />
              <mxPoint x="338.06" y="1240" />
            </Array>
          </mxGeometry>
        </mxCell>
        <mxCell id="mtMNLyoLJIpqdIh2ogYZ-38" value="o 1° e maior que o 2°?" style="rhombus;whiteSpace=wrap;html=1;fillColor=#FFFF0C;strokeColor=#2D7600;fontColor=#ffffff;" vertex="1" parent="1">
          <mxGeometry x="140.06" y="1170" width="90" height="80" as="geometry" />
        </mxCell>
        <mxCell id="mtMNLyoLJIpqdIh2ogYZ-39" style="edgeStyle=orthogonalEdgeStyle;rounded=0;orthogonalLoop=1;jettySize=auto;html=1;entryX=0;entryY=0.5;entryDx=0;entryDy=0;" edge="1" source="mtMNLyoLJIpqdIh2ogYZ-40" target="mtMNLyoLJIpqdIh2ogYZ-43" parent="1">
          <mxGeometry relative="1" as="geometry" />
        </mxCell>
        <mxCell id="mtMNLyoLJIpqdIh2ogYZ-40" value="exibir o maior" style="strokeWidth=2;html=1;shape=mxgraph.flowchart.display;whiteSpace=wrap;fillColor=#FFCE31;" vertex="1" parent="1">
          <mxGeometry x="25.060000000000002" y="1240" width="100" height="50" as="geometry" />
        </mxCell>
        <mxCell id="mtMNLyoLJIpqdIh2ogYZ-41" style="edgeStyle=orthogonalEdgeStyle;rounded=0;orthogonalLoop=1;jettySize=auto;html=1;entryX=1;entryY=0.5;entryDx=0;entryDy=0;" edge="1" source="mtMNLyoLJIpqdIh2ogYZ-42" target="mtMNLyoLJIpqdIh2ogYZ-43" parent="1">
          <mxGeometry relative="1" as="geometry">
            <Array as="points">
              <mxPoint x="345.06" y="1380" />
            </Array>
          </mxGeometry>
        </mxCell>
        <mxCell id="mtMNLyoLJIpqdIh2ogYZ-42" value="exibir o menor" style="strokeWidth=2;html=1;shape=mxgraph.flowchart.display;whiteSpace=wrap;fillColor=#FFCE31;" vertex="1" parent="1">
          <mxGeometry x="285.06" y="1230" width="105" height="50" as="geometry" />
        </mxCell>
        <mxCell id="mtMNLyoLJIpqdIh2ogYZ-43" value="FIM" style="ellipse;whiteSpace=wrap;html=1;fillColor=#FF3333;" vertex="1" parent="1">
          <mxGeometry x="125.06" y="1340" width="120" height="80" as="geometry" />
        </mxCell>
        <mxCell id="mtMNLyoLJIpqdIh2ogYZ-45" style="edgeStyle=orthogonalEdgeStyle;rounded=0;orthogonalLoop=1;jettySize=auto;html=1;entryX=0.571;entryY=0.143;entryDx=0;entryDy=0;entryPerimeter=0;" edge="1" parent="1" source="mtMNLyoLJIpqdIh2ogYZ-25" target="mtMNLyoLJIpqdIh2ogYZ-34">
          <mxGeometry relative="1" as="geometry" />
        </mxCell>
        <mxCell id="mtMNLyoLJIpqdIh2ogYZ-46" value="não" style="text;html=1;align=center;verticalAlign=middle;resizable=0;points=[];autosize=1;strokeColor=none;fillColor=none;" vertex="1" parent="1">
          <mxGeometry x="265.06" y="1178" width="40" height="30" as="geometry" />
        </mxCell>
      </root>
    </mxGraphModel>
  </diagram>
</mxfile>
